<?xml version="1.0" encoding="UTF-8"?>
<!DOCTYPE svg PUBLIC "-//W3C//DTD SVG 1.1//EN" "http://www.w3.org/Graphics/SVG/1.1/DTD/svg11.dtd">
<!-- Creator: CorelDRAW X8 -->
<svg xmlns="http://www.w3.org/2000/svg" xml:space="preserve" width="2075px" height="442px" version="1.1" style="shape-rendering:geometricPrecision; text-rendering:geometricPrecision; image-rendering:optimizeQuality; fill-rule:evenodd; clip-rule:evenodd"
viewBox="0 0 2075 442"
 xmlns:xlink="http://www.w3.org/1999/xlink">
 <defs>
  <style type="text/css">
   <![CDATA[
    .fil1 {fill:#FBBA00}
    .fil0 {fill:#FEFEFE;fill-rule:nonzero}
   ]]>
  </style>
 </defs>
 <g id="Layer_x0020_1">
  <metadata id="CorelCorpID_0Corel-Layer"/>
  <g id="g48">
   <path id="path44" class="fil0" d="M629 268l0 29 -116 0 0 -168 114 0 0 28 -82 0 0 41 71 0 0 26 -71 0 0 44 84 0zm54 32c-5,0 -11,-2 -16,-3 -5,-2 -10,-5 -14,-8 -4,-5 -7,-8 -8,-13 -4,-5 -4,-11 -4,-16 0,-6 2,-11 4,-16 3,-6 6,-9 11,-12 4,-5 11,-7 17,-10 6,-1 13,-1 21,-1 6,0 11,0 16,0 6,1 11,3 14,4l0 -7c0,-8 -2,-15 -6,-18 -5,-5 -12,-8 -21,-8 -6,0 -14,2 -21,5 -6,1 -12,5 -19,9l-9 -20c16,-10 33,-16 52,-16 18,0 32,5 41,14 10,8 15,21 15,38l0 38c0,4 1,7 1,8 2,2 3,2 7,2l0 27c-5,1 -10,1 -15,1 -6,0 -9,-1 -14,-3 -3,-3 -5,-6 -5,-11l-1 -6c-5,6 -13,13 -19,16 -8,3 -18,6 -27,6l0 0zm9 -24c7,0 11,-1 16,-3 5,-2 8,-5 11,-8 3,-1 5,-5 5,-8l0 -14c-3,-2 -8,-3 -13,-3 -3,-2 -8,-2 -12,-2 -8,0 -15,2 -20,5 -6,5 -7,9 -7,14 0,7 1,10 6,14 3,4 8,5 14,5l0 0zm141 24c-11,0 -20,-2 -31,-5 -10,-4 -18,-9 -26,-14l13 -21c6,5 14,10 22,13 7,2 15,3 21,3 6,0 11,0 16,-3 3,-2 5,-6 5,-9 0,-5 -2,-8 -7,-12 -5,-1 -11,-3 -20,-6 -8,-2 -16,-5 -21,-6 -6,-2 -11,-5 -14,-7 -4,-3 -7,-6 -8,-9 -2,-3 -2,-8 -2,-13 0,-6 2,-11 3,-17 3,-5 7,-10 11,-13 4,-3 10,-6 15,-8 6,-2 12,-3 20,-3 10,0 18,1 26,5 8,1 16,6 22,12l-13 19c-6,-4 -12,-8 -17,-9 -7,-3 -13,-5 -18,-5 -6,0 -11,2 -14,5 -3,1 -5,5 -5,9 0,4 0,5 0,7 2,1 3,1 5,3 2,2 5,3 8,3 3,2 6,2 11,3 8,3 16,5 22,7 7,3 11,4 15,8 4,3 6,6 9,9 2,5 2,10 2,14 0,13 -3,23 -13,29 -10,6 -22,11 -37,11l0 0zm72 21c2,1 5,1 6,3 3,0 5,0 8,0 2,0 3,0 5,-2 2,0 3,-1 5,-3 1,-3 3,-5 5,-9 1,-4 3,-8 4,-13l-49 -124 32 0 35 97 28 -97 30 0 -52 149c-3,8 -8,16 -14,21 -8,6 -18,8 -27,8 -3,0 -7,0 -8,0 -3,0 -6,-2 -8,-2l0 -28z"/>
   <path id="path46" class="fil0" d="M1153 268l0 29 -118 0 0 -168 116 0 0 28 -83 0 0 41 72 0 0 26 -72 0 0 44 85 0zm136 29l-32 0 0 -70c0,-9 -1,-17 -4,-22 -4,-3 -8,-7 -15,-7 -3,0 -6,0 -9,2 -5,2 -8,3 -10,6 -3,2 -6,5 -8,8 -3,4 -4,7 -6,10l0 73 -32 0 0 -124 29 0 0 22c5,-8 11,-14 20,-17 8,-5 20,-8 29,-8 8,0 14,1 19,5 6,3 10,6 13,11 1,5 5,9 5,16 1,6 1,11 1,17l0 78zm59 0l-46 -124 33 0 32 98 32 -98 30 0 -46 124 -35 0zm151 3c-11,0 -19,-2 -27,-6 -8,-3 -16,-8 -21,-13 -6,-6 -11,-13 -14,-21 -3,-8 -5,-16 -5,-25 0,-8 2,-16 5,-24 3,-8 8,-16 12,-20 7,-7 13,-12 23,-15 8,-5 16,-6 27,-6 9,0 19,1 27,6 8,3 14,8 20,15 5,4 10,11 13,19 3,8 5,15 5,25 0,2 0,3 0,5 0,3 -2,4 -2,4l-95 0c0,5 2,10 3,15 2,3 5,6 8,9 2,2 6,5 10,7 3,1 8,1 11,1 6,0 12,-1 19,-5 5,-3 9,-6 11,-12l27 8c-5,9 -11,17 -22,24 -10,6 -23,9 -35,9l0 0zm31 -76c0,-10 -4,-16 -9,-22 -6,-5 -14,-8 -22,-8 -5,0 -10,0 -13,1 -3,2 -6,5 -10,7 -3,3 -4,6 -7,9 -2,5 -2,8 -4,13l65 0zm53 -100l32 0 0 133c0,5 1,8 3,11 1,2 5,3 9,3 2,0 3,0 7,0 1,-1 4,-1 6,-3l5 24c-5,3 -10,5 -16,5 -5,1 -11,1 -14,1 -12,0 -19,-1 -24,-7 -5,-5 -8,-13 -8,-23l0 -144zm133 176c-11,0 -19,-2 -28,-6 -8,-3 -15,-8 -21,-15 -5,-4 -10,-12 -13,-19 -3,-8 -4,-17 -4,-25 0,-8 1,-17 4,-24 3,-8 8,-16 13,-20 6,-7 13,-12 21,-15 9,-5 17,-6 28,-6 10,0 19,1 27,6 8,3 14,8 21,15 5,4 9,12 13,20 3,7 4,16 4,24 0,8 -1,17 -4,25 -4,7 -8,15 -13,19 -7,7 -13,12 -21,15 -8,4 -17,6 -27,6zm-33 -65c0,6 1,11 3,16 2,3 3,8 6,11 4,3 7,6 12,8 3,1 7,3 12,3 5,0 8,-2 13,-3 3,-2 6,-5 9,-8 4,-3 7,-8 8,-11 2,-5 2,-11 2,-16 0,-5 0,-11 -2,-14 -1,-5 -4,-10 -8,-13 -3,-3 -6,-6 -9,-8 -5,-2 -8,-3 -13,-3 -5,0 -9,1 -12,3 -5,2 -8,5 -12,8 -3,3 -4,8 -6,13 -2,4 -3,9 -3,14zm194 65c-10,0 -18,-3 -26,-6 -8,-5 -13,-11 -17,-19l0 73 -32 0 0 -175 29 0 0 21c4,-7 9,-13 17,-18 6,-3 16,-6 25,-6 8,0 16,1 23,6 8,3 14,8 19,13 4,6 9,13 12,21 2,8 4,15 4,25 0,8 0,17 -4,25 -3,8 -6,15 -11,21 -5,6 -11,10 -17,14 -7,3 -15,5 -22,5l0 0zm-12 -27c5,0 10,-2 15,-3 3,-3 6,-5 9,-10 3,-3 5,-6 7,-11 1,-5 3,-9 3,-14 0,-5 -2,-11 -3,-14 -2,-5 -4,-10 -7,-13 -3,-3 -8,-6 -11,-8 -5,-2 -9,-3 -14,-3 -3,0 -7,1 -10,1 -3,2 -4,4 -8,5 -3,2 -4,5 -8,7 -1,3 -3,6 -4,9l0 29c3,8 8,12 12,17 7,5 13,8 19,8l0 0zm145 27c-10,0 -19,-2 -27,-6 -8,-3 -14,-8 -21,-13 -4,-6 -9,-13 -12,-21 -4,-8 -5,-16 -5,-25 0,-8 1,-16 5,-24 3,-8 8,-16 12,-20 7,-7 13,-12 21,-15 8,-5 17,-6 28,-6 10,0 20,1 27,6 8,3 15,8 21,15 5,4 10,11 13,19 1,8 3,15 3,25 0,2 0,3 0,5 0,3 0,4 0,4l-97 0c2,5 2,10 5,15 2,3 3,6 6,9 3,2 7,5 11,7 4,1 8,1 11,1 7,0 13,-1 18,-5 6,-3 9,-6 13,-12l27 8c-5,9 -13,17 -23,24 -9,6 -22,9 -36,9l0 0zm33 -76c-1,-10 -5,-16 -11,-22 -6,-5 -13,-8 -22,-8 -3,0 -8,0 -11,1 -5,2 -8,5 -11,7 -2,3 -5,6 -7,9 -1,5 -3,8 -3,13l65 0z"/>
  </g>
  <g id="g54">
   <path id="path50" class="fil1" d="M305 244l-86 88 -125 -126 84 -84c1,11 5,24 8,35l-46 46 30 30 35 -36c0,0 1,1 1,1 0,0 0,0 0,0l8 12 0 0c2,0 2,0 2,1 3,2 6,3 9,7l-36 34 32 34 49 -48c5,2 9,2 16,3 6,2 12,3 19,3l0 0zm-121 -244c7,83 5,183 97,216 43,16 98,21 144,25 -22,0 -44,0 -66,-1 -48,-2 -99,-5 -138,-35l-8 -11c-38,-53 -30,-134 -29,-194z"/>
   <path id="path52" class="fil0" d="M6 210l169 -169c0,10 0,18 0,27l-156 154c0,2 0,3 0,3 0,2 0,4 0,5l178 176c0,0 1,0 3,0 0,0 2,0 3,0l157 -158c8,1 18,1 26,1l-170 170c-5,5 -11,6 -16,6 -6,0 -13,-1 -17,-6l-177 -176c-4,-5 -6,-11 -6,-18 0,-4 2,-11 6,-15zm188 -183c1,0 4,0 6,0 5,0 11,2 16,6l176 177c5,4 6,11 6,15 0,2 0,4 0,5 -6,-1 -12,-1 -19,-1 0,-2 2,-2 2,-4 0,0 -2,-1 -2,-3l-176 -176c-1,0 -3,0 -3,0 -2,0 -3,0 -3,0l-2 2c0,-7 0,-15 -1,-21l0 0z"/>
  </g>
  <path id="text58" class="fil0" d="M1382 426c-3,0 -6,-1 -8,-2 -3,-1 -4,-3 -6,-6l0 23 -8 0 0 -53 7 0 0 7c2,-2 4,-4 6,-6 2,-1 5,-2 8,-2 2,0 5,1 7,2 2,1 4,2 5,4 2,2 3,4 4,6 1,3 1,5 1,8 0,3 0,7 -2,10 -1,3 -3,5 -6,7 -2,1 -5,2 -8,2zm-3 -7c2,0 3,0 5,-1 1,0 2,-1 3,-2 1,-2 2,-3 2,-5 1,-1 1,-3 1,-4 0,-2 0,-4 -1,-5 0,-2 -1,-3 -2,-4 -1,-1 -2,-2 -4,-3 -1,0 -3,-1 -4,-1 -1,0 -3,0 -4,1 -1,0 -2,1 -3,1 -1,1 -2,2 -2,3 -1,1 -1,2 -2,3l0 9c1,2 2,3 3,4 1,2 2,3 4,3 1,1 3,1 4,1z"/>
  <path id="1" class="fil0" d="M1422 426c-2,0 -5,0 -8,-1 -2,-1 -4,-3 -6,-5 -1,-1 -3,-3 -4,-6 0,-2 -1,-5 -1,-7 0,-3 1,-5 1,-8 1,-2 3,-4 4,-6 2,-2 4,-3 7,-4 2,-1 5,-2 7,-2 3,0 6,1 8,2 3,1 5,2 7,4 1,2 3,4 4,6 0,3 1,5 1,8 0,2 -1,5 -1,7 -1,3 -3,5 -4,6 -2,2 -4,4 -7,5 -2,1 -5,1 -8,1zm-11 -19c0,2 1,4 2,6 1,2 2,4 4,5 1,1 3,1 5,1 3,0 4,0 6,-1 2,-1 3,-3 4,-5 1,-2 2,-4 2,-6 0,-3 -1,-5 -2,-7 -1,-1 -2,-3 -4,-4 -2,-1 -3,-2 -6,-2 -2,0 -4,1 -5,2 -2,1 -3,3 -4,4 -1,2 -2,5 -2,7z"/>
  <polygon id="2" class="fil0" points="1495,388 1502,388 1486,425 1480,425 1473,409 1466,425 1459,425 1443,388 1451,388 1463,418 1468,404 1462,388 1469,388 1473,400 1477,388 1484,388 1477,404 1483,418 "/>
  <path id="3" class="fil0" d="M1523 426c-3,0 -5,0 -8,-1 -2,-1 -4,-3 -6,-5 -2,-1 -3,-3 -4,-6 -1,-2 -1,-4 -1,-7 0,-4 1,-7 2,-10 2,-3 4,-5 7,-7 3,-2 6,-3 10,-3 4,0 8,1 11,3 2,2 5,4 6,7 2,3 3,6 3,10 0,0 0,1 -1,1 0,1 0,1 0,1l-30 0c0,3 1,5 2,6 1,2 2,3 4,4 2,1 4,1 6,1 2,0 4,0 6,-1 1,-1 3,-3 3,-4l7 2c-1,1 -2,3 -4,4 -1,2 -3,3 -5,4 -3,1 -5,1 -8,1zm-11 -22l23 0c0,-2 -1,-4 -2,-5 -1,-2 -3,-3 -4,-4 -2,-1 -4,-2 -6,-2 -2,0 -4,1 -5,2 -2,1 -3,2 -4,4 -1,1 -2,3 -2,5z"/>
  <path id="4" class="fil0" d="M1570 395c-3,0 -6,0 -8,2 -2,1 -4,3 -5,5l0 23 -8 0 0 -37 7 0 0 8c2,-2 3,-4 6,-6 2,-2 4,-2 6,-3 1,0 1,0 1,0 1,0 1,0 1,0l0 8z"/>
  <path id="5" class="fil0" d="M1592 426c-3,0 -5,0 -8,-1 -2,-1 -4,-3 -6,-5 -1,-1 -3,-3 -4,-6 -1,-2 -1,-4 -1,-7 0,-4 1,-7 2,-10 2,-3 4,-5 7,-7 3,-2 7,-3 10,-3 4,0 8,1 11,3 3,2 5,4 6,7 2,3 3,6 3,10 0,0 0,1 0,1 0,1 0,1 0,1l-31 0c0,3 1,5 2,6 1,2 3,3 4,4 2,1 4,1 6,1 2,0 4,0 6,-1 2,-1 3,-3 4,-4l6 2c0,1 -2,3 -3,4 -2,2 -4,3 -6,4 -2,1 -5,1 -8,1zm-11 -22l23 0c0,-2 -1,-4 -2,-5 -1,-2 -2,-3 -4,-4 -2,-1 -4,-2 -6,-2 -2,0 -3,1 -5,2 -2,1 -3,2 -4,4 -1,1 -2,3 -2,5z"/>
  <path id="6" class="fil0" d="M1616 407c0,-4 1,-7 2,-10 2,-3 4,-5 6,-7 3,-2 6,-3 9,-3 3,0 5,1 8,3 2,1 4,3 5,5l0 -22 8 0 0 44c0,0 0,1 1,1 0,1 0,1 1,1l0 6c-1,1 -2,1 -3,1 -2,0 -3,-1 -4,-1 -1,-1 -2,-2 -2,-4l0 -2c-1,2 -3,4 -6,5 -2,2 -5,2 -7,2 -3,0 -5,0 -7,-1 -3,-1 -4,-3 -6,-5 -2,-1 -3,-3 -4,-6 -1,-2 -1,-5 -1,-7zm30 5l0 -10c0,-1 -1,-3 -2,-4 -2,-1 -3,-2 -4,-3 -2,0 -3,-1 -5,-1 -1,0 -3,1 -4,1 -2,1 -3,2 -4,3 -1,1 -2,3 -2,4 -1,2 -1,3 -1,5 0,2 0,3 1,5 1,1 1,3 2,4 1,1 3,2 4,2 2,1 3,1 5,1 1,0 2,0 3,0 1,-1 2,-1 3,-2 1,0 2,-1 3,-2 0,-1 1,-2 1,-3z"/>
  <path id="7" class="fil0" d="M1702 426c-3,0 -5,0 -8,-2 -2,-1 -4,-3 -5,-5l0 6 -7 0 0 -52 8 0 0 22c1,-2 3,-4 5,-5 3,-2 5,-3 8,-3 3,0 5,1 7,2 2,1 4,3 5,4 2,2 3,4 4,7 1,2 1,4 1,7 0,3 0,5 -1,7 -1,3 -2,5 -4,7 -2,1 -4,3 -6,4 -2,1 -4,1 -7,1zm-2 -7c2,0 3,0 5,-1 1,0 3,-1 4,-2 1,-1 2,-3 2,-4 1,-2 1,-3 1,-5 0,-2 -1,-4 -1,-6 -1,-2 -3,-4 -4,-5 -2,-1 -4,-2 -6,-2 -2,0 -3,1 -5,1 -1,1 -2,2 -3,3 -2,1 -2,3 -3,4l0 10c0,1 1,2 1,3 1,1 2,2 3,2 1,1 2,1 3,2 1,0 2,0 3,0z"/>
  <path id="8" class="fil0" d="M1727 434c1,0 2,1 2,1 1,0 2,0 2,0 1,0 2,0 2,-1 1,0 1,-1 2,-3 1,-1 1,-3 2,-5l-15 -38 8 0 12 30 10 -30 7 0 -17 46c0,2 -1,3 -2,4 -1,1 -2,2 -4,3 -1,1 -3,1 -5,1 -1,0 -1,0 -2,0 0,0 -1,-1 -2,-1l0 -7z"/>
  <polygon id="9" class="fil0" points="1824,374 1824,425 1816,425 1816,403 1790,403 1790,425 1782,425 1782,374 1790,374 1790,396 1816,396 1816,374 "/>
  <polygon id="10" class="fil0" points="1836,425 1836,374 1844,374 1844,425 "/>
  <polygon id="11" class="fil0" points="1874,375 1881,375 1887,392 1894,375 1901,375 1893,397 1900,416 1916,374 1925,374 1904,425 1897,425 1888,403 1878,425 1871,425 1850,374 1859,374 1875,416 1882,397 "/>
  <polygon id="12" class="fil0" points="1966,418 1966,425 1931,425 1931,374 1966,374 1966,381 1939,381 1939,396 1962,396 1962,403 1939,403 1939,418 "/>
  <polygon id="13" class="fil0" points="1973,409 1973,402 1995,402 1995,409 "/>
  <polygon id="14" class="fil0" points="2005,425 2005,374 2013,374 2013,425 "/>
  <polygon id="15" class="fil0" points="2062,381 2045,381 2045,425 2037,425 2037,381 2020,381 2020,374 2062,374 "/>
 </g>
</svg>
